<svg width="50px" height="50px" viewBox="0 0 50 50">
<path d="M5.943,22.712l2.288-0.003l6.26,0.007l2.296-0.004c0.827-0.003,1.498-0.678,1.495-1.505
	c-0.003-0.824-0.677-1.495-1.506-1.495l-2.254,0.004l-6.327-0.009l-2.263,0.004c-0.827,0.003-1.498,0.678-1.495,1.505
	C4.441,22.042,5.115,22.712,5.943,22.712z"/>
<path d="M34.926,19.716l-6.293-0.008l-2.264,0.004c-0.4,0.001-0.776,0.159-1.059,0.443c-0.282,0.284-0.437,0.662-0.435,1.062
	c0.003,0.824,0.678,1.495,1.506,1.495l2.287-0.004l6.26,0.008l2.297-0.004c0.826-0.003,1.498-0.678,1.494-1.505
	c-0.003-0.824-0.677-1.495-1.506-1.495L34.926,19.716z"/>
<path d="M11.936,14.075c-0.4,0-0.777,0.157-1.06,0.44c-0.283,0.284-0.438,0.661-0.438,1.062c0.001,0.826,0.675,1.498,1.501,1.498
	l6.936-0.004l18.493,0.008l6.696-0.004c0.826-0.001,1.498-0.675,1.498-1.5c0-0.827-0.674-1.5-1.502-1.5l-6.541,0.004l-19.045-0.008
	L11.936,14.075z"/>
<path d="M5.942,11.438c1.484-0.004,2.968-0.006,4.452-0.006l12.649,0.013c1.529,0,3.059-0.001,4.588-0.006
	c0.826-0.003,1.497-0.678,1.494-1.505c-0.003-0.825-0.678-1.495-1.505-1.495c-1.474,0.005-2.944,0.006-4.416,0.006L10.356,8.432
	c-1.474,0-2.949,0.001-4.423,0.006C5.106,8.441,4.435,9.116,4.438,9.943C4.441,10.768,5.114,11.438,5.942,11.438z"/>
<path d="M44.061,25.35l-6.553,0.004l-17.545-0.008l-6.025,0.004c-0.401,0-0.778,0.156-1.061,0.44
	c-0.284,0.282-0.439,0.661-0.438,1.063c0.001,0.824,0.675,1.496,1.502,1.496l6.172-0.004l17.584,0.008l6.367-0.004
	c0.826,0,1.498-0.672,1.498-1.5S44.889,25.35,44.061,25.35z"/>
<path d="M31.373,30.986l-5.434,0.005l-14.531-0.009l-5.472,0.004c-0.401,0-0.777,0.156-1.061,0.439
	c-0.283,0.283-0.439,0.661-0.438,1.063c0.001,0.826,0.675,1.498,1.502,1.498l5.15-0.004l14.765,0.008l5.521-0.004
	c0.826,0,1.499-0.674,1.499-1.502C32.876,31.659,32.203,30.986,31.373,30.986z"/>
<path d="M22.181,36.621l-0.122,0.004l-3.171,0.004L9.359,36.62l-3.426,0.005c-0.826,0.003-1.497,0.678-1.495,1.503
	c0.001,0.825,0.675,1.497,1.504,1.497l3.313-0.004l9.451,0.008l3.425-0.004c0.826-0.003,1.497-0.678,1.495-1.503
	C23.625,37.295,22.976,36.621,22.181,36.621z"/>
</svg>
