<svg viewBox="0 0 50 50" ><g class="cutout"><path d="M5.943,22.751l2.288-0.003l6.261,0.007l2.296-0.004c0.826-0.003,1.498-0.678,1.495-1.505c-0.003-0.824-0.677-1.495-1.507-1.495l-2.254,0.004l-6.326-0.009L5.932,19.75c-0.827,0.003-1.498,0.678-1.495,1.505C4.441,22.081,5.115,22.751,5.943,22.751z"/><path d="M34.926,19.755l-6.293-0.008l-2.264,0.004c-0.4,0.001-0.776,0.159-1.059,0.442c-0.283,0.285-0.438,0.662-0.436,1.063c0.003,0.824,0.678,1.495,1.506,1.495l2.287-0.004l6.26,0.008l2.297-0.004c0.826-0.003,1.498-0.678,1.494-1.505c-0.003-0.824-0.677-1.495-1.506-1.495L34.926,19.755z"/><path d="M11.936,14.114c-0.399,0-0.776,0.157-1.06,0.44s-0.438,0.66-0.438,1.062c0.002,0.825,0.676,1.498,1.502,1.498l6.936-0.005l18.493,0.009l6.696-0.004c0.826-0.001,1.498-0.675,1.498-1.5c0-0.827-0.674-1.5-1.502-1.5l-6.541,0.004l-19.045-0.009L11.936,14.114z"/><path d="M5.942,11.477c1.484-0.004,2.968-0.006,4.453-0.006l12.648,0.013c1.529,0,3.059-0.001,4.588-0.006c0.826-0.003,1.497-0.678,1.494-1.505c-0.003-0.825-0.678-1.495-1.505-1.495c-1.474,0.005-2.944,0.006-4.416,0.006L10.355,8.471c-1.474,0-2.948,0.001-4.422,0.006C5.106,8.48,4.435,9.155,4.438,9.982C4.441,10.807,5.114,11.477,5.942,11.477z"/><path d="M44.061,25.389l-6.553,0.004l-17.545-0.008l-6.025,0.004c-0.4,0-0.777,0.156-1.061,0.439c-0.284,0.283-0.439,0.662-0.438,1.064c0,0.824,0.674,1.496,1.502,1.496l6.172-0.004l17.584,0.008l6.367-0.004c0.826,0,1.498-0.672,1.498-1.5S44.889,25.389,44.061,25.389z"/><path d="M31.373,31.025l-5.434,0.004l-14.531-0.008l-5.472,0.004c-0.401,0-0.777,0.156-1.061,0.438c-0.283,0.283-0.439,0.662-0.438,1.064c0.001,0.826,0.675,1.498,1.502,1.498l5.15-0.004l14.765,0.008l5.521-0.004c0.826,0,1.499-0.674,1.499-1.502C32.876,31.697,32.203,31.025,31.373,31.025z"/><path d="M22.182,36.66l-0.123,0.004l-3.17,0.004l-9.529-0.01l-3.426,0.006c-0.826,0.002-1.497,0.678-1.495,1.502c0.001,0.826,0.675,1.498,1.504,1.498l3.313-0.004l9.451,0.008l3.425-0.004c0.826-0.004,1.497-0.678,1.495-1.504C23.625,37.334,22.977,36.66,22.182,36.66z"/></g><g class="line"><path d="M5.938,38.125c5.396-0.014,10.792,0.014,16.188,0"/><path d="M5.938,32.486c8.479-0.014,16.958,0.015,25.438,0"/><path d="M13.938,26.85c10.042-0.014,20.083,0.014,30.125,0"/><path d="M5.938,21.212c3.615-0.014,7.229,0.014,10.844,0"/><path d="M26.375,21.212c3.615-0.014,7.229,0.014,10.844,0"/><path d="M11.938,15.575c10.708-0.014,21.417,0.014,32.125,0"/><path d="M5.938,9.938c7.229-0.022,14.458,0.022,21.688,0"/></g></svg>