<svg viewBox="0 358.14 841.889 273" ><path fill="#FFFFFF" d="M-32.972,690.281H991.006l-2.198-265.095h-92.077v-2.797l-22.249-1.399l-11.332-2.66l-20.015,6.155l-10.213-0.418l-9.381-6.155h-94.31v-33.165h-5.036v-6.855h-12.029v42.397h-34.28H625.13v4.06h-2.097v-5.597h-37.779v-1.958l-1.541-3.64c-1.959-4.058-7.414-0.979-7.414-0.979l-1.681,3.499h-9.233l-2.101,1.678h-5.316v1.401h-20.85h-81.716v2.8h2.658v1.956h-10.913v1.68H419.16v-3.916h6.02v-2.1h-23.649v-16.933h-64.084v9.518h-21.828v4.615h-19.171V404.2h-3.637v-4.06h-45.056v3.219h-54.572v9.377h-6.715v-18.608h-20.29v8.113h-26.726l-4.338,6.155l-2.239,2.659H127v-3.077h-1.82v-3.776h-2.938v-4.478H87.26v3.636l-3.078-0.14v3.36h-3.079v2.797h-2.52v-3.916h-3.22v-9.444H52.279v2.729H38.284v6.718H26.81v-9.377H-0.335v1.864h-11.614v5.551h-21.023V690.281z"/><polygon fill="none" stroke-width="0.25" points="201.019,493.05 201.019,498.088 195.982,498.088 195.982,501.167 201.019,501.167 201.019,547.062 234.88,550.981 234.88,570.01 446.447,606.672 470.514,590.16 478.07,592.398 484.508,592.959 493.741,593.797 578.819,606.672 678.725,561.053 705.031,564.693 747.009,545.384 988.808,571.41 988.808,480.739 749.528,470.383 748.125,467.864 675.645,465.625 653.261,468.425 653.261,474.3 635.068,475.139 634.788,480.457 588.893,481.016 589.45,438.2 592.394,438.2 592.394,435.402 587.492,435.402 587.213,429.803 518.652,427.005 517.531,454.432 515.569,454.711 515.569,464.226 507.737,464.226 496.54,460.027 456.803,475.139 456.803,478.779 307.362,469.823 307.083,464.505 289.172,462.828 291.41,460.589 277.698,458.348 277.417,454.432 273.22,458.348 273.78,473.743 272.101,475.421 272.101,479.338 261.187,479.899 261.187,481.857 256.708,482.417 254.47,483.815 253.91,487.175 244.675,487.733 244.115,490.252 218.368,491.373 "/><polygon fill="none" stroke-width="0.25" points="757.83,363.292 757.679,444.392 764.758,444.519 764.918,363.292 "/><polygon fill="none" stroke-width="0.25" points="764.918,365.158 774.433,365.158 774.433,444.792 764.758,444.519 "/><line stroke-width="0.25" x1="757.83" y1="369.774" x2="668.787" y2="420.289"/><line stroke-width="0.25" x1="757.83" y1="372.575" x2="673.125" y2="420.289"/><line stroke-width="0.25" x1="774.433" y1="369.774" x2="962.215" y2="447.855"/><line stroke-width="0.25" x1="774.433" y1="374.534" x2="945.701" y2="448.835"/><line stroke-width="0.25" x1="774.433" y1="378.872" x2="917.018" y2="447.855"/><line stroke-width="0.25" x1="774.433" y1="383.347" x2="890.06" y2="447.855"/><line stroke-width="0.25" x1="735.767" y1="443.709" x2="757.83" y2="410.635"/><line stroke-width="0.25" x1="733.949" y1="433.611" x2="757.83" y2="403.779"/><line stroke-width="0.25" x1="732.09" y1="424.067" x2="757.83" y2="397.945"/><line stroke-width="0.25" x1="723.361" y1="424.067" x2="757.83" y2="392.305"/><line stroke-width="0.25" x1="715.478" y1="424.067" x2="757.223" y2="389.086"/><line stroke-width="0.25" x1="712.166" y1="421.119" x2="757.223" y2="385.168"/><line stroke-width="0.25" x1="705.729" y1="420.289" x2="757.223" y2="382.371"/><line stroke-width="0.25" x1="699.573" y1="420.22" x2="757.223" y2="378.872"/><line stroke-width="0.25" x1="785.41" y1="445.098" x2="774.433" y2="417.912"/><line stroke-width="0.25" x1="797.01" y1="445.055" x2="774.433" y2="408.185"/><line stroke-width="0.25" x1="809.072" y1="445.759" x2="774.433" y2="401.33"/><line stroke-width="0.25" x1="823.747" y1="446.172" x2="774.433" y2="397.945"/><line stroke-width="0.25" x1="835.759" y1="446.603" x2="774.433" y2="393.003"/><line stroke-width="0.25" x1="850.095" y1="446.912" x2="774.433" y2="390.205"/><line stroke-width="0.25" x1="863.139" y1="447.119" x2="774.433" y2="387.546"/><line stroke-width="0.25" x1="878.131" y1="447.695" x2="774.433" y2="385.168"/><line stroke-width="0.25" x1="904.437" y1="448.431" x2="774.433" y2="381.671"/><line stroke-width="0.25" x1="929.472" y1="447.855" x2="774.433" y2="377.192"/><line stroke-width="0.25" x1="693.138" y1="420.22" x2="757.83" y2="376.493"/><line stroke-width="0.25" x1="685.3" y1="420.22" x2="757.223" y2="374.534"/><line stroke-width="0.25" x1="679.282" y1="420.289" x2="757.83" y2="373.972"/><polyline fill="none" stroke-width="0.25" points="712.166,420.289 712.166,424.067 733.949,424.067 733.949,458.816 "/><line stroke-width="0.25" x1="682.069" y1="465.825" x2="828.908" y2="447.855"/><line stroke-width="0.25" x1="733.949" y1="443.658" x2="988.801" y2="450.794"/></svg>