<svg viewBox="0 0 50 50" ><line x1="25" y1="27.561" x2="25" y2="44.625"/><path d="M25,26.099"/><path d="M25,23.761"/><line x1="25" y1="5.375" x2="25" y2="22.381"/><line x1="22.872" y1="7.275" x2="25" y2="9.438"/><line x1="25" y1="13.594" x2="21.39" y2="10.053"/><line x1="27.128" y1="7.275" x2="25" y2="9.438"/><line x1="25" y1="13.594" x2="28.609" y2="10.053"/><line x1="8.434" y1="17.987" x2="11.367" y2="17.213"/><line x1="14.975" y1="19.276" x2="10.109" y2="20.652"/><line x1="10.546" y1="14.292" x2="11.367" y2="17.213"/><line x1="14.975" y1="19.276" x2="13.693" y2="14.385"/><line x1="39.396" y1="14.378" x2="38.429" y2="17.254"/><line x1="34.799" y1="19.358" x2="36.139" y2="14.451"/><line x1="41.414" y1="17.98" x2="38.429" y2="17.254"/><line x1="34.799" y1="19.358" x2="39.724" y2="20.714"/><line x1="22.872" y1="42.652" x2="25" y2="40.49"/><line x1="25" y1="36.334" x2="21.39" y2="39.875"/><line x1="27.128" y1="42.652" x2="25" y2="40.49"/><line x1="25" y1="36.334" x2="28.609" y2="39.875"/><polyline points="25,18.719 19.094,15.281 15.594,12.188 15.813,9.094 18.625,10.469 19.563,15.531 19.656,22 14.197,24.864 9.25,26.781 6.531,25 9.313,23.313 13.938,25 19.688,28.25 19.5,34.406 18.594,39.563 15.906,40.844 15.594,37.75 19.473,34.558 25,31.5 "/><polyline points="25,18.719 30.906,15.281 34.406,12.188 34.188,9.094 31.375,10.469 30.438,15.531 30.344,22 35.804,24.864 40.75,26.781 43.469,25 40.688,23.313 36.063,25 30.313,28.25 30.5,34.406 31.406,39.563 34.094,40.844 34.406,37.75 30.526,34.558 25,31.5 "/><polygon class="cutout" points="25,22.461 22.867,23.761 22.867,26.245 25,27.446 27.202,26.31 27.202,23.761 "/><line x1="22.867" y1="23.761" x2="8.004" y2="15.188"/><line x1="27.202" y1="23.761" x2="41.995" y2="15.188"/><line x1="27.202" y1="26.31" x2="41.995" y2="34.813"/><line x1="22.867" y1="26.245" x2="8.098" y2="34.935"/><polyline points="41.414,32.02 38.625,32.875 39.286,35.706 "/><polyline points="39.752,29.358 35.026,30.807 36.25,35.556 "/><polyline points="8.585,32.02 11.505,32.931 10.791,35.718 "/><polyline points="10.236,29.427 15.233,30.736 13.85,35.598 "/></svg>