<svg width="50px" height="50px" viewBox="0 0 50 50">
<path d="M43.852,25.001c0-2.833-1.912-5.219-4.517-5.938
	c1.332-2.35,0.998-5.389-1.007-7.393c-2.002-2.001-5.041-2.337-7.393-1.006C30.217,8.061,27.832,6.148,25,6.148
	c-2.833,0-5.219,1.912-5.939,4.515c-2.349-1.332-5.388-0.996-7.392,1.006c-2.002,2.002-2.337,5.042-1.006,7.392
	c-2.602,0.72-4.514,3.106-4.514,5.939c0,2.832,1.913,5.217,4.515,5.937c-1.333,2.35-0.998,5.389,1.006,7.393
	c1.203,1.202,2.78,1.805,4.356,1.805c1.049,0,2.097-0.267,3.036-0.8c0.72,2.604,3.105,4.517,5.938,4.517
	c2.832,0,5.217-1.912,5.937-4.517c0.939,0.532,1.988,0.801,3.035,0.801c1.578,0,3.155-0.602,4.356-1.804
	c2.003-2.004,2.338-5.044,1.006-7.395C41.939,30.218,43.852,27.833,43.852,25.001z"/>
<path d="M25.001,16.616c-4.625,0-8.385,3.76-8.385,8.385
	c0,4.624,3.76,8.384,8.385,8.384c4.624,0,8.384-3.761,8.384-8.384C33.385,20.377,29.625,16.616,25.001,16.616z"/>
</svg>
