<svg viewBox="0 0 50 50"><path d="m43.852 25.001c0-2.833-1.912-5.219-4.517-5.938 1.332-2.35 0.998-5.389-1.007-7.393-2.002-2.001-5.041-2.337-7.393-1.006-0.718-2.603-3.103-4.516-5.935-4.516-2.833 0-5.219 1.912-5.939 4.515-2.349-1.332-5.388-0.996-7.392 1.006-2.002 2.002-2.337 5.042-1.006 7.392-2.602 0.72-4.514 3.106-4.514 5.939 0 2.832 1.913 5.217 4.515 5.938-1.333 2.351-0.998 5.39 1.006 7.394 1.203 1.2 2.78 1.806 4.356 1.806 1.049 0 2.097-0.268 3.036-0.801 0.72 2.604 3.105 4.518 5.938 4.518 2.832 0 5.217-1.912 5.938-4.518 0.938 0.532 1.987 0.803 3.035 0.803 1.577 0 3.154-0.604 4.355-1.806 2.003-2.004 2.338-5.044 1.006-7.396 2.605-0.719 4.518-3.105 4.518-5.937z"/><path d="m25.001 16.616c-4.625 0-8.385 3.76-8.385 8.385 0 4.624 3.76 8.384 8.385 8.384 4.624 0 8.384-3.761 8.384-8.384 0-4.624-3.76-8.385-8.384-8.385z"/></svg>