<?xml version="1.0" encoding="utf-8"?>
<!-- Generator: Adobe Illustrator 16.0.0, SVG Export Plug-In . SVG Version: 6.00 Build 0)  -->
<!DOCTYPE svg PUBLIC "-//W3C//DTD SVG 1.1//EN" "http://www.w3.org/Graphics/SVG/1.1/DTD/svg11.dtd">
<svg version="1.1" id="Layer_1" xmlns="http://www.w3.org/2000/svg" xmlns:xlink="http://www.w3.org/1999/xlink" x="0px" y="0px"
	 width="50px" height="50px" viewBox="0 0 50 50" enable-background="new 0 0 50 50" xml:space="preserve">
<path d="M43.852,25.001c0-2.833-1.912-5.219-4.517-5.938c1.332-2.35,0.998-5.389-1.007-7.393c-2.002-2.001-5.041-2.337-7.393-1.006
	C30.217,8.061,27.832,6.148,25,6.148c-2.833,0-5.219,1.912-5.939,4.515c-2.349-1.332-5.388-0.996-7.392,1.006
	c-2.002,2.002-2.337,5.042-1.006,7.392C8.061,19.781,6.149,22.167,6.149,25c0,2.832,1.913,5.217,4.515,5.938
	c-1.333,2.35-0.998,5.389,1.006,7.393c1.203,1.201,2.78,1.805,4.356,1.805c1.049,0,2.097-0.267,3.036-0.8
	c0.72,2.604,3.105,4.517,5.938,4.517c2.832,0,5.217-1.912,5.938-4.517c0.938,0.532,1.987,0.802,3.035,0.802
	c1.577,0,3.154-0.603,4.355-1.805c2.003-2.004,2.338-5.044,1.006-7.395C41.939,30.219,43.852,27.833,43.852,25.001z"/>
<path id="dimineata" d="M6.149,25c0,2.832,1.913,5.216,4.515,5.937c-1.333,2.35-0.998,5.389,1.006,7.393
	c1.203,1.201,2.78,1.805,4.356,1.805c1.049,0,2.097-0.267,3.036-0.8c0.72,2.604,3.105,4.517,5.938,4.517
	c2.832,0,5.217-1.912,5.938-4.517c0.938,0.532,1.987,0.802,3.035,0.802c1.577,0,3.154-0.603,4.355-1.805
	c2.003-2.004,2.338-5.044,1.006-7.395c2.605-0.719,4.518-3.104,4.518-5.937v0H6.149z"/>
<path id="seara" d="M43.852,25c0-2.832-1.913-5.217-4.515-5.938c1.333-2.35,0.998-5.389-1.006-7.393
	c-1.203-1.201-2.78-1.805-4.356-1.805c-1.049,0-2.097,0.268-3.036,0.801C30.219,8.061,27.834,6.148,25,6.148
	c-2.832,0-5.217,1.912-5.938,4.518c-0.938-0.533-1.987-0.803-3.035-0.803c-1.577,0-3.154,0.604-4.355,1.805
	c-2.003,2.004-2.338,5.045-1.006,7.395C8.061,19.781,6.149,22.168,6.149,25l0,0H43.852z"/>
<path id="inner" d="M25.001,16.616c-4.625,0-8.385,3.76-8.385,8.385c0,4.624,3.76,8.384,8.385,8.384c4.624,0,8.384-3.761,8.384-8.384
	C33.385,20.377,29.625,16.616,25.001,16.616z"/>
</svg>
