<svg viewBox="0 0 50 50" ><path d="M24.342,22.575c0.364,0.363,0.952,0.363,1.316,0c1.807-1.797,6.709-6.676,6.809-6.776c2.066-2.066,2.066-5.416,0-7.482C30.406,6.255,27.066,6.25,25,8.301c-2.067-2.052-5.405-2.047-7.467,0.015c-2.065,2.066-2.065,5.416,0,7.482C17.634,15.9,22.538,20.778,24.342,22.575z"/><path d="M25.658,27.425c-0.365-0.363-0.953-0.363-1.316,0c-1.807,1.797-6.71,6.676-6.809,6.776c-2.066,2.066-2.066,5.415,0,7.482c2.06,2.062,5.399,2.066,7.467,0.015c2.068,2.053,5.406,2.047,7.466-0.015c2.066-2.066,2.066-5.416,0-7.482C32.365,34.101,27.463,29.222,25.658,27.425z"/><path d="M27.426,24.312c-0.363,0.365-0.363,0.953,0,1.315c1.795,1.807,6.674,6.71,6.775,6.809c2.066,2.066,5.416,2.066,7.482,0c2.061-2.06,2.066-5.399,0.016-7.466c2.051-2.068,2.047-5.406-0.016-7.467c-2.066-2.066-5.416-2.066-7.482,0C34.1,17.604,29.221,22.507,27.426,24.312z"/><path d="M22.575,25.628c0.363-0.365,0.363-0.953,0-1.316c-1.797-1.807-6.676-6.709-6.775-6.809c-2.066-2.066-5.416-2.066-7.483,0c-2.062,2.061-2.066,5.4-0.015,7.467c-2.053,2.067-2.047,5.405,0.015,7.467c2.066,2.065,5.417,2.065,7.483,0C15.899,32.335,20.778,27.432,22.575,25.628z"/></svg>